# xmcd
#
# Track frame offsets: 
#        150
#        39555
#        74207
#        107517
#
# Disc length: 2086 seconds
#
# Revision: 1
# Processed by: cddbd v1.5.2PL0 Copyright (c) Steve Scherf et al.
# Submitted via: ExactAudioCopy v0.99pb5
#
DISCID=35082404
DTITLE=Art Farmer with Jim Hall - Big Blues
DYEAR=1978
DGENRE=Jazz
TTITLE0=Whisper Not
TTITLE1=A Child Is Born
TTITLE2=Big Blues
TTITLE3=Pavane for a Dead Princess
EXTD=YEAR: 1978
EXTT0=
EXTT1=
EXTT2=
EXTT3=
PLAYORDER=
